<svg width="18" height="29" viewBox="0 0 18 29" fill="none" xmlns="http://www.w3.org/2000/svg">
<path fill-rule="evenodd" clip-rule="evenodd" d="M15.3543 15.6369L14.4479 22.2873L2.61061 22.4108L1.59547 15.9333L0.0238101 14.474L0.000244141 13.3225L17.0002 13.2978L16.8951 14.7457L15.3543 15.6369ZM6.1201 16.718C6.1201 15.5039 4.61008 15.5096 4.61733 16.642C4.61733 16.9898 4.63727 19.8836 4.64089 20.2029C4.64089 21.2973 6.12916 21.2631 6.12191 20.1193C6.1201 19.8114 6.12372 17.1209 6.1201 16.718ZM9.27248 16.718C9.27248 15.5039 7.76245 15.5096 7.7697 16.642C7.7697 16.9898 7.78964 19.8836 7.79327 20.2029C7.79327 21.2973 9.28154 21.2631 9.27429 20.1193C9.27248 19.8114 9.2761 17.1209 9.27248 16.718ZM12.4249 16.718C12.4249 15.5039 10.9148 15.5096 10.9221 16.642C10.9221 16.9898 10.942 19.8836 10.9456 20.2029C10.9456 21.2973 12.4339 21.2631 12.4267 20.1193C12.4249 19.8114 12.4285 17.1209 12.4249 16.718ZM9.22172 9.81492C8.3661 8.92756 9.49363 7.69439 10.3202 8.54754L13.9458 12.3079L11.5892 12.3041L9.22172 9.81492ZM5.30255 12.3136H2.97135C3.95567 11.2799 6.35576 8.76985 6.54791 8.56464C7.39084 7.66778 8.57094 8.84966 7.76427 9.70471L5.30255 12.3136Z" fill="#292826"/>
<rect x="9.44458" y="17.4805" width="8.5" height="8.5" rx="4.25" fill="#FEF1EC"/>
<path d="M14.9414 23.4655C14.5651 23.9007 14.0868 24.1183 13.5066 24.1183C12.9263 24.1183 12.4458 23.9007 12.065 23.4655C11.6887 23.0258 11.5006 22.4274 11.5006 21.6703C11.5006 20.9132 11.6887 20.3171 12.065 19.8819C12.4458 19.4422 12.9263 19.2223 13.5066 19.2223C14.0868 19.2223 14.5651 19.4422 14.9414 19.8819C15.3222 20.3171 15.5126 20.9132 15.5126 21.6703C15.5126 22.4274 15.3222 23.0258 14.9414 23.4655ZM13.5066 23.0643C13.7604 23.0643 13.9758 22.9442 14.1526 22.7039C14.3339 22.4636 14.4246 22.1191 14.4246 21.6703C14.4246 21.2215 14.3339 20.877 14.1526 20.6367C13.9758 20.3964 13.7604 20.2763 13.5066 20.2763C13.2482 20.2763 13.0306 20.3964 12.8538 20.6367C12.677 20.877 12.5886 21.2215 12.5886 21.6703C12.5886 22.1191 12.677 22.4636 12.8538 22.7039C13.0306 22.9442 13.2482 23.0643 13.5066 23.0643Z" fill="#292826"/>
</svg>
