<svg width="24" height="24" viewBox="0 0 24 24" fill="none" xmlns="http://www.w3.org/2000/svg">
<g clip-path="url(#clip0_164_1958)">
<path fill-rule="evenodd" clip-rule="evenodd" d="M15.8624 23.3055H15.3889C15.3375 21.3383 15.2725 18.5133 15.2374 16.1646L18.3924 16.1024L18.9931 12.5848L15.2211 12.8553C15.2888 9.9817 15.8218 9.44052 17.6889 9.44052C18.2734 9.44052 18.8741 9.44052 19.2718 9.44052V5.78217C18.2323 5.64479 17.1842 5.58239 16.1357 5.59546C12.2934 5.59546 11.0946 7.99558 11.0946 12.7552V13.1178L9.15453 13.2504L9.12747 16.281L11.0865 16.2431C11.0865 18.7433 11.0649 21.3843 11.0568 23.2351C9.40347 23.1999 7.77182 23.1648 6.45676 23.1648C1.50229 23.1648 0.157471 20.2343 0.157471 16.5083C0.157471 12.7823 0.230529 8.66123 0.230529 7.24876C0.230529 3.06276 2.08406 0.738404 6.67865 0.738404C8.37794 0.738404 14.7692 0.722168 16.9448 0.722168C21.1254 0.722168 23.1304 2.44852 23.1304 7.50311C23.1304 8.75052 23.0384 11.0857 23.0384 17.5609C23.0303 21.6332 21.1064 23.3055 15.8624 23.3055Z" fill="black"/>
</g>
<defs>
<clipPath id="clip0_164_1958">
<rect width="23.2706" height="23" fill="white" transform="translate(0 0.51123)"/>
</clipPath>
</defs>
</svg>
