<svg width="24" height="24" viewBox="0 0 24 24" fill="none" xmlns="http://www.w3.org/2000/svg">
<g clip-path="url(#clip0_164_1960)">
<path fill-rule="evenodd" clip-rule="evenodd" d="M16.3493 23.3055C13.5568 23.3055 9.58458 23.1648 6.93552 23.1648C1.98105 23.1648 0.63623 20.2343 0.63623 16.5083C0.63623 12.7823 0.709289 8.66123 0.709289 7.24876C0.709289 3.06276 2.56282 0.738404 7.15741 0.738404C8.8567 0.738404 15.248 0.722168 17.4235 0.722168C21.6041 0.722168 23.6092 2.44852 23.6092 7.50311C23.6092 8.75052 23.5172 11.0857 23.5172 17.5609C23.5172 21.6332 21.5933 23.3055 16.3493 23.3055ZM12.1552 6.10958C4.35682 6.10958 3.9807 17.9776 12.2878 17.9776C19.8751 17.9776 19.9238 6.10958 12.1552 6.10958ZM19.204 3.75817C16.95 3.75817 16.8418 7.17029 19.2446 7.17029C21.4363 7.16487 21.4526 3.75817 19.204 3.75817Z" fill="black"/>
</g>
<defs>
<clipPath id="clip0_164_1960">
<rect width="23.2706" height="23" fill="white" transform="translate(0.487061 0.51123)"/>
</clipPath>
</defs>
</svg>
