<svg width="25" height="24" viewBox="0 0 25 24" fill="none" xmlns="http://www.w3.org/2000/svg">
<g clip-path="url(#clip0_164_1962)">
<path fill-rule="evenodd" clip-rule="evenodd" d="M16.8351 23.3055C14.0427 23.3055 10.0704 23.1648 7.42136 23.1648C2.46689 23.1648 1.12207 20.2343 1.12207 16.5083C1.12207 12.7823 1.19513 8.66123 1.19513 7.24876C1.19513 3.06276 3.04866 0.738404 7.64325 0.738404C9.34254 0.738404 15.7338 0.722168 17.9094 0.722168C22.09 0.722168 24.095 2.44852 24.095 7.50311C24.095 8.75052 24.003 11.0857 24.003 17.5609C24.003 21.6332 22.0791 23.3055 16.8351 23.3055ZM21.1645 8.82629L18.2909 6.78064L14.0643 11.4402L14.1942 7.30017L10.2544 7.23523L10.7144 8.74782L10.8064 13.3478C9.3723 13.0989 7.62431 9.50276 7.73525 7.39487L3.98219 7.44628C4.89678 14.8631 10.3789 18.4646 13.8776 17.9559L13.9615 15.2176C14.2321 15.0877 14.6001 14.8875 15.0438 14.6223L17.5738 17.9424L21.7355 17.7178L17.7497 12.6876C19.0878 11.5913 20.2416 10.2877 21.1672 8.82629H21.1645Z" fill="black"/>
</g>
<defs>
<clipPath id="clip0_164_1962">
<rect width="23.2706" height="23" fill="white" transform="translate(0.974365 0.51123)"/>
</clipPath>
</defs>
</svg>
